<?xml version="1.0" encoding="utf-8"?>
<!-- Generator: Adobe Illustrator 23.0.1, SVG Export Plug-In . SVG Version: 6.00 Build 0)  -->
<svg version="1.1" id="Layer_1" xmlns="http://www.w3.org/2000/svg" xmlns:xlink="http://www.w3.org/1999/xlink" x="0px" y="0px"
	 viewBox="0 0 383 89.2" style="enable-background:new 0 0 383 89.2;" xml:space="preserve">
<g>
	<path d="M0.3,87.4V1.5h16.4v31.2c4.7-6.6,10.9-9.8,18.7-9.8c4.1,0,7.7,0.8,10.9,2.4c3.2,1.6,5.9,3.8,8.1,6.7
		c2.2,2.9,3.9,6.3,5.1,10.3s1.7,8.3,1.7,13.1c0,5.3-0.7,10-2,14.2c-1.4,4.2-3.2,7.7-5.6,10.6c-2.4,2.9-5.3,5.1-8.6,6.6
		c-3.4,1.5-7,2.3-10.9,2.3c-7.8,0-13.7-3.1-17.5-9.3l-0.1,7.7H0.3z M30.1,75.5c4.2,0,7.6-1.8,10.2-5.3c2.6-3.5,4-8.1,4-13.7
		c0-13-4.8-19.4-14.3-19.4c-9.3,0-13.9,6.8-13.9,20.5c0,5.4,1.3,9.7,4,13S26.1,75.5,30.1,75.5z"/>
	<path d="M106.7,87.4c-0.5-1.6-0.9-3.5-1-5.6c-2,2.2-4.6,4-7.8,5.3c-3.2,1.3-7,2-11.3,2c-7.2,0-12.6-1.6-15.9-4.8
		c-3.4-3.2-5.1-7.4-5.1-12.5c0-4.5,0.7-8.1,2.2-10.8c1.4-2.7,3.5-4.8,6-6.3c2.6-1.5,5.6-2.7,9.1-3.4c3.5-0.7,7.4-1.4,11.6-2
		c4.2-0.6,7-1.4,8.4-2.4c1.4-1,2.2-2.6,2.2-4.8c0-2-1-3.6-2.9-4.8c-1.9-1.2-4.5-1.7-7.7-1.7c-3.8,0-6.6,0.9-8.2,2.6
		c-1.7,1.7-2.7,4-3.1,6.8H67.7c0.1-3.2,0.6-6.2,1.6-9c1-2.7,2.6-5.1,4.7-7c2.2-2,5-3.5,8.5-4.5c3.5-1.1,7.8-1.6,12.8-1.6
		c4.9,0,9.1,0.6,12.6,1.7c3.5,1.1,6.2,2.7,8.3,4.8c2.1,2.1,3.6,4.7,4.5,7.8c0.9,3.1,1.4,6.6,1.4,10.5v39.8H106.7z M105.6,56.6
		c-0.9,0.9-2.1,1.5-3.7,2c-1.6,0.5-4,1.1-7,1.7c-4.8,0.9-8.1,2.1-9.8,3.6c-1.8,1.5-2.7,3.5-2.7,6.3c0,4.7,2.7,7,8.1,7
		c2.1,0,4.1-0.4,5.9-1.1c1.8-0.7,3.4-1.7,4.7-2.9c1.3-1.2,2.4-2.7,3.2-4.3c0.8-1.7,1.2-3.4,1.2-5.3L105.6,56.6z"/>
	<path d="M129.5,87.4V24.5h15.6V32c1.4-2.1,2.8-3.8,4.3-5c1.5-1.2,3-2.1,4.6-2.7c1.6-0.6,3.2-1,4.8-1.2c1.6-0.2,3.3-0.3,5-0.3h2.2
		v17c-1.5-0.3-3.1-0.4-4.6-0.4c-10.1,0-15.2,5.1-15.2,15.2v32.7H129.5z"/>
	<path d="M223.3,64.6c-0.4,3.7-1.5,7-3.1,10c-1.7,3-3.8,5.5-6.3,7.7c-2.6,2.1-5.5,3.8-8.8,5c-3.3,1.2-6.8,1.8-10.7,1.8
		c-4.3,0-8.2-0.7-11.7-2.1c-3.5-1.4-6.6-3.5-9.1-6.4c-2.6-2.9-4.5-6.4-5.9-10.6c-1.4-4.2-2.1-9.1-2.1-14.8s0.7-10.5,2.1-14.6
		c1.4-4.1,3.4-7.4,5.9-10c2.6-2.6,5.6-4.5,9.3-5.8c3.6-1.3,7.7-1.9,12.1-1.9c4.1,0,7.8,0.6,11.2,1.7c3.4,1.1,6.3,2.7,8.8,4.9
		c2.5,2.1,4.5,4.7,5.9,7.7c1.4,3,2.3,6.3,2.6,10h-16.8c-0.4-3.2-1.7-5.8-3.9-7.6c-2.2-1.8-4.8-2.8-8-2.8c-1.8,0-3.5,0.3-5,0.9
		c-1.5,0.6-2.9,1.6-4,3s-2.1,3.3-2.7,5.6c-0.7,2.3-1,5.2-1,8.6c0,6.9,1.2,12,3.7,15.3s5.3,5,8.6,5c3.2,0,6-0.9,8.3-2.7
		s3.6-4.4,4-7.8H223.3z"/>
	<path d="M267.6,87.4c-0.5-1.6-0.9-3.5-1-5.6c-2,2.2-4.6,4-7.8,5.3c-3.2,1.3-7,2-11.3,2c-7.2,0-12.6-1.6-15.9-4.8
		c-3.4-3.2-5.1-7.4-5.1-12.5c0-4.5,0.7-8.1,2.2-10.8c1.4-2.7,3.5-4.8,6-6.3s5.6-2.7,9.1-3.4c3.5-0.7,7.4-1.4,11.6-2
		c4.2-0.6,7-1.4,8.4-2.4c1.4-1,2.2-2.6,2.2-4.8c0-2-1-3.6-2.9-4.8c-1.9-1.2-4.5-1.7-7.7-1.7c-3.8,0-6.6,0.9-8.2,2.6
		c-1.7,1.7-2.7,4-3.1,6.8h-15.5c0.1-3.2,0.6-6.2,1.6-9c1-2.7,2.6-5.1,4.7-7c2.2-2,5-3.5,8.5-4.5c3.5-1.1,7.8-1.6,12.8-1.6
		c4.9,0,9.1,0.6,12.6,1.7c3.5,1.1,6.2,2.7,8.3,4.8c2.1,2.1,3.6,4.7,4.5,7.8c0.9,3.1,1.4,6.6,1.4,10.5v39.8H267.6z M266.4,56.6
		c-0.9,0.9-2.1,1.5-3.7,2c-1.6,0.5-4,1.1-7,1.7c-4.8,0.9-8.1,2.1-9.8,3.6c-1.8,1.5-2.7,3.5-2.7,6.3c0,4.7,2.7,7,8.1,7
		c2.1,0,4.1-0.4,5.9-1.1c1.8-0.7,3.4-1.7,4.7-2.9c1.3-1.2,2.4-2.7,3.2-4.3c0.8-1.7,1.2-3.4,1.2-5.3L266.4,56.6z"/>
	<path d="M290.3,87.4V24.5h15.6V32c1.4-2.1,2.8-3.8,4.3-5c1.5-1.2,3-2.1,4.6-2.7c1.6-0.6,3.2-1,4.8-1.2c1.6-0.2,3.3-0.3,5-0.3h2.2
		v17c-1.5-0.3-3.1-0.4-4.6-0.4c-10.1,0-15.2,5.1-15.2,15.2v32.7H290.3z"/>
	<path d="M367,46h15.5v17.9c0,3.3-0.5,6.5-1.5,9.5c-1,3-2.5,5.7-4.6,8.1c-2.1,2.3-4.7,4.2-7.9,5.6c-3.2,1.4-7,2-11.4,2
		c-4.6,0-8.5-0.7-11.8-2c-3.2-1.4-5.9-3.2-8-5.5c-2.1-2.3-3.6-5-4.5-8.1c-0.9-3.1-1.4-6.3-1.4-9.7V7.5h16.4v17h34.8v11.8h-34.8v25.8
		c0,4,0.7,7.1,2.2,9.3c1.5,2.2,3.9,3.3,7.4,3.3c3.3,0,5.8-1.1,7.4-3.2c1.6-2.1,2.4-5.2,2.4-9.1V46z"/>
</g>
</svg>
